<svg width="53" height="33" viewBox="0 0 53 33" fill="none" xmlns="http://www.w3.org/2000/svg">
<path d="M42.7301 18.4821C42.2496 22.5663 40.4563 25.9984 37.3502 28.7785C34.2441 31.5585 30.5974 32.9485 26.4102 32.9485C23.6988 32.9485 21.1419 32.3136 18.7394 31.0437C14.3463 32.4165 10.4937 33.0515 7.18169 32.9485C3.86968 32.8456 1.69885 31.9532 0.66921 30.2715C-0.429074 28.5554 -0.103021 26.2644 1.64737 23.3986C3.39776 20.5328 6.21211 17.5725 10.0904 14.5179C10.5709 10.3994 12.3642 6.95866 15.4703 4.19579C18.5764 1.43292 22.223 0.0514858 26.4102 0.0514858C29.1216 0.0514858 31.6786 0.686431 34.0811 1.95632C38.4742 0.583467 42.3268 -0.0514783 45.6388 0.0514858C48.9508 0.15445 51.1216 1.02964 52.1513 2.67707C53.2496 4.42746 52.9235 6.72699 51.1731 9.57567C49.4227 12.4243 46.6084 15.3931 42.7301 18.4821ZM7.05299 27.9033C7.56781 28.83 8.61461 29.3963 10.1934 29.6022C11.7722 29.8081 13.6598 29.6365 15.8564 29.0874C12.8705 26.6162 11.0171 23.4758 10.2964 19.6661C7.07015 23.3042 5.98902 26.0499 7.05299 27.9033ZM45.7675 5.04525C45.2527 4.11857 44.2059 3.56085 42.6271 3.37208C41.0483 3.18331 39.1606 3.34634 36.9641 3.86116C39.95 6.36662 41.8034 9.50702 42.5241 13.2824C45.7503 9.67863 46.8315 6.93292 45.7675 5.04525Z" fill="#00FFB2"/>
</svg>
