<svg width="139" height="70" viewBox="0 0 139 70" fill="none" xmlns="http://www.w3.org/2000/svg">
<path d="M85.696 18.4414C85.2155 22.5256 83.4222 25.9577 80.3161 28.7378C77.21 31.5178 73.5634 32.9078 69.3762 32.9078C66.6648 32.9078 64.1079 32.2729 61.7054 31.003C57.3122 32.3758 53.4596 33.0108 50.1476 32.9078C46.8356 32.8048 44.6648 31.9125 43.6352 30.2307C42.5369 28.5147 42.8629 26.2237 44.6133 23.3579C46.3637 20.4921 49.1781 17.5318 53.0564 14.4772C53.5369 10.3587 55.3302 6.91795 58.4362 4.15508C61.5423 1.39221 65.189 0.0107753 69.3762 0.0107753C72.0876 0.0107753 74.6445 0.645721 77.047 1.91561C81.4401 0.542756 85.2927 -0.0921888 88.6047 0.0107753C91.9167 0.113739 94.0876 0.988934 95.1172 2.63636C96.2155 4.38675 95.8894 6.68628 94.1391 9.53496C92.3887 12.3836 89.5743 15.3524 85.696 18.4414ZM50.0189 27.8626C50.5337 28.7892 51.5806 29.3555 53.1593 29.5615C54.7381 29.7674 56.6258 29.5958 58.8224 29.0467C55.8364 26.5755 53.983 23.4351 53.2623 19.6254C50.0361 23.2635 48.955 26.0092 50.0189 27.8626ZM88.7334 5.00453C88.2186 4.07786 87.1718 3.52014 85.593 3.33137C84.0142 3.1426 82.1266 3.30563 79.93 3.82045C82.916 6.32591 84.7693 9.46631 85.4901 13.2417C88.7163 9.63792 89.7974 6.89221 88.7334 5.00453Z" fill="#00FFB2"/>
<path d="M8.19855 61.4417C8.19855 61.2016 8.16162 60.9862 8.08776 60.7954C8.02005 60.5984 7.8908 60.4199 7.69999 60.2599C7.50918 60.0937 7.24144 59.9306 6.89675 59.7706C6.55207 59.6105 6.10583 59.4443 5.55803 59.272C4.94867 59.075 4.3701 58.8535 3.8223 58.6073C3.28065 58.3611 2.80056 58.0748 2.38201 57.7486C1.96962 57.4163 1.6434 57.0316 1.40336 56.5946C1.16946 56.1575 1.05252 55.6498 1.05252 55.0712C1.05252 54.5111 1.17562 54.0033 1.42182 53.5478C1.66802 53.0862 2.01271 52.6922 2.45587 52.366C2.89904 52.0336 3.42222 51.7782 4.02541 51.5997C4.63477 51.4212 5.30259 51.332 6.02889 51.332C7.01985 51.332 7.88464 51.5105 8.62325 51.8675C9.36186 52.2245 9.93428 52.7138 10.3405 53.3354C10.7529 53.9571 10.9591 54.668 10.9591 55.4682H8.20778C8.20778 55.0743 8.12469 54.7296 7.9585 54.4341C7.79847 54.1325 7.55227 53.8956 7.21989 53.7232C6.89367 53.5509 6.48129 53.4647 5.98272 53.4647C5.50263 53.4647 5.10255 53.5386 4.78249 53.6863C4.46242 53.8279 4.22238 54.0217 4.06234 54.2679C3.90231 54.508 3.8223 54.7788 3.8223 55.0804C3.8223 55.3081 3.87769 55.5143 3.98848 55.699C4.10543 55.8836 4.27777 56.056 4.50551 56.216C4.73325 56.376 5.0133 56.5268 5.34568 56.6684C5.67805 56.81 6.06274 56.9485 6.49975 57.0839C7.2322 57.3055 7.87541 57.5547 8.42936 57.8317C8.98948 58.1087 9.45726 58.4195 9.83272 58.7642C10.2082 59.1089 10.4913 59.4997 10.6821 59.9368C10.8729 60.3738 10.9683 60.8692 10.9683 61.4232C10.9683 62.0079 10.8545 62.5311 10.6267 62.9927C10.399 63.4544 10.0697 63.8452 9.63883 64.1653C9.20798 64.4853 8.69403 64.7285 8.09699 64.8947C7.49995 65.0608 6.83212 65.1439 6.09352 65.1439C5.42877 65.1439 4.77325 65.0578 4.12697 64.8854C3.48069 64.7069 2.89288 64.4392 2.36355 64.0822C1.84036 63.7252 1.42182 63.2697 1.10791 62.7158C0.794004 62.1618 0.637049 61.5063 0.637049 60.7492H3.41606C3.41606 61.1678 3.48069 61.5217 3.60995 61.811C3.7392 62.1003 3.92078 62.3342 4.15467 62.5127C4.39472 62.6911 4.67785 62.8204 5.00407 62.9004C5.33644 62.9804 5.69959 63.0204 6.09352 63.0204C6.57361 63.0204 6.96754 62.9527 7.27529 62.8173C7.5892 62.6819 7.82001 62.4942 7.96773 62.2541C8.12161 62.0141 8.19855 61.7433 8.19855 61.4417ZM21.6039 51.5166V64.9593H18.8434V51.5166H21.6039ZM25.7401 51.5166V53.6863H14.7718V51.5166H25.7401ZM34.5292 53.8155L30.8731 64.9593H27.9279L32.9227 51.5166H34.7969L34.5292 53.8155ZM37.5667 64.9593L33.9014 53.8155L33.6059 51.5166H35.4986L40.5211 64.9593H37.5667ZM37.4005 59.9552V62.1249H30.3007V59.9552H37.4005ZM44.5093 51.5166H49.5226C50.5505 51.5166 51.4337 51.6705 52.1723 51.9783C52.9171 52.286 53.4895 52.7415 53.8896 53.3447C54.2897 53.9479 54.4897 54.6896 54.4897 55.5697C54.4897 56.2899 54.3666 56.9085 54.1204 57.4255C53.8803 57.9364 53.5387 58.3641 53.0956 58.7088C52.6586 59.0473 52.1446 59.3182 51.5537 59.5213L50.6766 59.9829H46.3188L46.3004 57.8225H49.541C50.0273 57.8225 50.4304 57.7363 50.7505 57.564C51.0706 57.3916 51.3106 57.1516 51.4706 56.8438C51.6368 56.5361 51.7199 56.1791 51.7199 55.7729C51.7199 55.342 51.6399 54.9696 51.4799 54.6557C51.3198 54.3418 51.0767 54.1018 50.7505 53.9356C50.4243 53.7694 50.015 53.6863 49.5226 53.6863H47.279V64.9593H44.5093V51.5166ZM52.0246 64.9593L48.9594 58.9673L51.8861 58.9489L54.9883 64.83V64.9593H52.0246ZM64.4421 58.1456V60.2322H59.2257V58.1456H64.4421Z" fill="white"/>
<path d="M74.8284 59.0597H71.3754L71.3569 57.1577H74.256C74.7668 57.1577 75.1854 57.0931 75.5116 56.9639C75.8378 56.8284 76.0809 56.6346 76.241 56.3822C76.4071 56.1237 76.4902 55.8098 76.4902 55.4405C76.4902 55.0219 76.4102 54.6834 76.2502 54.4249C76.0963 54.1664 75.8532 53.9787 75.5208 53.8617C75.1946 53.7448 74.773 53.6863 74.256 53.6863H72.3356V64.9593H69.5658V51.5166H74.256C75.0376 51.5166 75.7362 51.5905 76.3518 51.7382C76.9734 51.8859 77.4997 52.1106 77.9305 52.4122C78.3614 52.7138 78.6907 53.0954 78.9184 53.557C79.1462 54.0125 79.26 54.5541 79.26 55.182C79.26 55.7359 79.1338 56.2468 78.8815 56.7146C78.6353 57.1824 78.2444 57.564 77.7089 57.8594C77.1796 58.1549 76.4872 58.318 75.6316 58.3487L74.8284 59.0597ZM74.7084 64.9593H70.6183L71.6985 62.7989H74.7084C75.1946 62.7989 75.5916 62.7219 75.8994 62.568C76.2071 62.408 76.4348 62.1926 76.5826 61.9218C76.7303 61.6509 76.8042 61.3401 76.8042 60.9893C76.8042 60.5953 76.7364 60.2537 76.601 59.9645C76.4718 59.6752 76.2625 59.4536 75.9732 59.2997C75.6839 59.1397 75.3023 59.0597 74.8284 59.0597H72.1602L72.1786 57.1577H75.5024L76.1394 57.9056C76.958 57.8933 77.6166 58.0379 78.1152 58.3395C78.6199 58.635 78.9861 59.0197 79.2139 59.4936C79.4478 59.9675 79.5647 60.4753 79.5647 61.017C79.5647 61.8787 79.377 62.605 79.0015 63.1959C78.6261 63.7806 78.0752 64.2207 77.3489 64.5161C76.6287 64.8116 75.7486 64.9593 74.7084 64.9593ZM89.8494 53.8155L86.1933 64.9593H83.2481L88.243 51.5166H90.1172L89.8494 53.8155ZM92.887 64.9593L89.2216 53.8155L88.9262 51.5166H90.8189L95.8414 64.9593H92.887ZM92.7208 59.9552V62.1249H85.6209V59.9552H92.7208ZM106.828 61.4417C106.828 61.2016 106.791 60.9862 106.717 60.7954C106.649 60.5984 106.52 60.4199 106.329 60.2599C106.138 60.0937 105.871 59.9306 105.526 59.7706C105.181 59.6105 104.735 59.4443 104.187 59.272C103.578 59.075 102.999 58.8535 102.452 58.6073C101.91 58.3611 101.43 58.0748 101.011 57.7486C100.599 57.4163 100.273 57.0316 100.033 56.5946C99.7987 56.1575 99.6818 55.6498 99.6818 55.0712C99.6818 54.5111 99.8049 54.0033 100.051 53.5478C100.297 53.0862 100.642 52.6922 101.085 52.366C101.528 52.0336 102.051 51.7782 102.655 51.5997C103.264 51.4212 103.932 51.332 104.658 51.332C105.649 51.332 106.514 51.5105 107.253 51.8675C107.991 52.2245 108.564 52.7138 108.97 53.3354C109.382 53.9571 109.588 54.668 109.588 55.4682H106.837C106.837 55.0743 106.754 54.7296 106.588 54.4341C106.428 54.1325 106.182 53.8956 105.849 53.7232C105.523 53.5509 105.111 53.4647 104.612 53.4647C104.132 53.4647 103.732 53.5386 103.412 53.6863C103.092 53.8279 102.852 54.0217 102.692 54.2679C102.532 54.508 102.452 54.7788 102.452 55.0804C102.452 55.3081 102.507 55.5143 102.618 55.699C102.735 55.8836 102.907 56.056 103.135 56.216C103.363 56.376 103.643 56.5268 103.975 56.6684C104.307 56.81 104.692 56.9485 105.129 57.0839C105.861 57.3055 106.505 57.5547 107.059 57.8317C107.619 58.1087 108.087 58.4195 108.462 58.7642C108.837 59.1089 109.121 59.4997 109.311 59.9368C109.502 60.3738 109.598 60.8692 109.598 61.4232C109.598 62.0079 109.484 62.5311 109.256 62.9927C109.028 63.4544 108.699 63.8452 108.268 64.1653C107.837 64.4853 107.323 64.7285 106.726 64.8947C106.129 65.0608 105.461 65.1439 104.723 65.1439C104.058 65.1439 103.403 65.0578 102.756 64.8854C102.11 64.7069 101.522 64.4392 100.993 64.0822C100.47 63.7252 100.051 63.2697 99.7372 62.7158C99.4233 62.1618 99.2663 61.5063 99.2663 60.7492H102.045C102.045 61.1678 102.11 61.5217 102.239 61.811C102.368 62.1003 102.55 62.3342 102.784 62.5127C103.024 62.6911 103.307 62.8204 103.633 62.9004C103.966 62.9804 104.329 63.0204 104.723 63.0204C105.203 63.0204 105.597 62.9527 105.905 62.8173C106.218 62.6819 106.449 62.4942 106.597 62.2541C106.751 62.0141 106.828 61.7433 106.828 61.4417ZM123.243 62.7989V64.9593H116.088V62.7989H123.243ZM116.993 51.5166V64.9593H114.223V51.5166H116.993ZM122.311 56.9916V59.0966H116.088V56.9916H122.311ZM123.234 51.5166V53.6863H116.088V51.5166H123.234ZM131.727 64.9593H128.801L128.819 62.7989H131.727C132.454 62.7989 133.066 62.6358 133.565 62.3095C134.063 61.9772 134.439 61.494 134.691 60.86C134.95 60.226 135.079 59.4597 135.079 58.5611V57.9056C135.079 57.2162 135.005 56.6099 134.857 56.0868C134.716 55.5636 134.503 55.1235 134.22 54.7665C133.937 54.4095 133.589 54.1418 133.177 53.9633C132.765 53.7786 132.291 53.6863 131.755 53.6863H128.745V51.5166H131.755C132.654 51.5166 133.475 51.6705 134.22 51.9783C134.971 52.2799 135.62 52.7138 136.168 53.2801C136.716 53.8463 137.138 54.5234 137.433 55.3112C137.735 56.0929 137.886 56.9639 137.886 57.924V58.5611C137.886 59.5151 137.735 60.3861 137.433 61.1739C137.138 61.9618 136.716 62.6388 136.168 63.2051C135.627 63.7652 134.977 64.1991 134.22 64.5069C133.469 64.8085 132.638 64.9593 131.727 64.9593ZM130.37 51.5166V64.9593H127.6V51.5166H130.37Z" fill="#00FFB2"/>
</svg>
