<svg id="ei96IJVmScg1" xmlns="http://www.w3.org/2000/svg" xmlns:xlink="http://www.w3.org/1999/xlink" viewBox="0 0 93 40" shape-rendering="geometricPrecision" text-rendering="geometricPrecision" style="background-color:transparent"><style><![CDATA[#ei96IJVmScg4 {animation: ei96IJVmScg4_c_o 3000ms linear infinite normal forwards}@keyframes ei96IJVmScg4_c_o { 0% {opacity: 0} 20% {opacity: 1} 100% {opacity: 1}} #ei96IJVmScg5 {animation: ei96IJVmScg5_c_o 3000ms linear infinite normal forwards}@keyframes ei96IJVmScg5_c_o { 0% {opacity: 0} 40% {opacity: 1} 100% {opacity: 1}} #ei96IJVmScg6 {animation: ei96IJVmScg6_c_o 3000ms linear infinite normal forwards}@keyframes ei96IJVmScg6_c_o { 0% {opacity: 0} 60% {opacity: 1} 100% {opacity: 1}} #ei96IJVmScg7 {animation: ei96IJVmScg7_c_o 3000ms linear infinite normal forwards}@keyframes ei96IJVmScg7_c_o { 0% {opacity: 0} 76.666667% {opacity: 1} 100% {opacity: 1}} #ei96IJVmScg8 {animation: ei96IJVmScg8_c_o 3000ms linear infinite normal forwards}@keyframes ei96IJVmScg8_c_o { 0% {opacity: 0} 93.333333% {opacity: 1} 100% {opacity: 1}} #ei96IJVmScg10_tr {animation: ei96IJVmScg10_tr__tr 3000ms linear infinite normal forwards}@keyframes ei96IJVmScg10_tr__tr { 0% {transform: translate(12px,11px) rotate(0deg)} 50% {transform: translate(12px,11px) rotate(179.938042deg)} 100% {transform: translate(12px,11px) rotate(360.058054deg)}}]]></style><rect width="93" height="40" rx="5" ry="5" fill="#2d2d2d"/><circle r="4.75" transform="translate(12 11)" fill="none" stroke="#eb00ff" stroke-width="2.5"/><circle id="ei96IJVmScg4" r="1" transform="translate(24 11)" opacity="0" fill="#eb00ff"/><circle id="ei96IJVmScg5" r="1" transform="translate(29 11)" opacity="0" fill="#eb00ff"/><circle id="ei96IJVmScg6" r="1" transform="translate(34 11)" opacity="0" fill="#eb00ff"/><circle id="ei96IJVmScg7" r="1" transform="translate(39 11)" opacity="0" fill="#eb00ff"/><circle id="ei96IJVmScg8" r="1" transform="translate(44 11)" opacity="0" fill="#eb00ff"/><path d="M6.65625,24h1.6875v7.5469L8.17383,33h-1.51758v-9Zm5.70115,5.7656v.1231c0,.4726-.0508.9062-.1523,1.3008-.0977.3945-.25.7363-.4571,1.0253-.207.2852-.4648.5079-.7734.668-.3047.1563-.6641.2344-1.07812.2344-.38671,0-.72265-.0781-1.00781-.2344-.28125-.1562-.51758-.3769-.70898-.6621s-.34571-.6191-.46289-1.0019c-.11719-.3829-.20508-.8008-.26368-1.254v-.2695c.0586-.4531.14649-.8711.26368-1.2539s.27148-.7168.46289-1.0019.42773-.5059.70898-.6622.61328-.2343.9961-.2343c.41793,0,.78123.08,1.08983.2402.3125.1563.5703.3789.7734.668.2071.2851.3594.625.4571,1.0195.1015.3906.1523.8223.1523,1.2949Zm-1.6875.1231v-.1231c0-.2578-.0195-.5-.0586-.7265-.0351-.2305-.0976-.4317-.1875-.6036-.0898-.1757-.2129-.3144-.3691-.416-.15236-.1015-.34962-.1523-.59181-.1523-.23047,0-.42578.039-.58594.1172-.16015.0781-.29297.1875-.39843.3281-.10157.1406-.17774.3086-.22852.5039-.05078.1914-.08203.4024-.09375.6328v.7676c.01172.3086.0625.582.15234.8203.09375.2344.23438.4199.42188.5567.19141.1328.43945.1992.74414.1992.23828,0,.43555-.0469.59179-.1407s.2774-.2265.3633-.3984c.0898-.1719.1523-.373.1875-.6035.0351-.2344.0527-.4883.0527-.7617Zm2.4668.0058v-.123c0-.4649.0664-.8926.1992-1.2832.1329-.3945.3262-.7363.5801-1.0254s.5664-.5137.9375-.6738c.3711-.1641.7969-.2461,1.2774-.2461.4804,0,.9082.082,1.2832.2461.375.1601.6894.3847.9433.6738.2578.2891.4531.6309.586,1.0254.1328.3906.1992.8183.1992,1.2832v.123c0,.461-.0664.8887-.1992,1.2832-.1329.3907-.3282.7325-.586,1.0254-.2539.2891-.5664.5137-.9375.6739-.3711.1601-.7969.2402-1.2773.2402-.4805,0-.9082-.0801-1.2832-.2402-.3711-.1602-.6856-.3848-.9434-.6739-.2539-.2929-.4472-.6347-.5801-1.0254-.1328-.3945-.1992-.8222-.1992-1.2832Zm1.6875-.123v.123c0,.2657.0235.5137.0703.7442s.1211.4336.2227.6093c.1055.1719.2422.3067.4101.4043s.3731.1465.6153.1465c.2344,0,.4355-.0488.6035-.1465s.3027-.2324.4043-.4043c.1016-.1757.1758-.3789.2226-.6093.0508-.2305.0762-.4785.0762-.7442v-.123c0-.2578-.0254-.5-.0762-.7266-.0468-.2304-.123-.4336-.2285-.6094-.1015-.1796-.2363-.3203-.4043-.4218s-.3711-.1524-.6093-.1524c-.2383,0-.4414.0508-.6094.1524-.1641.1015-.2988.2422-.4043.4218-.1016.1758-.1758.379-.2227.6094-.0468.2266-.0703.4688-.0703.7266Zm8.461-3.1113v1.1953h-3.6914v-1.1953h3.6914Zm-2.7774-1.5645h1.6875v5.9941c0,.1836.0235.3243.0703.4219.0508.0977.125.166.2227.2051.0976.0352.2207.0527.3691.0527.1055,0,.1992-.0039.2813-.0117.0859-.0117.1582-.0234.2168-.0351l.0058,1.2421c-.1445.0469-.3008.084-.4687.1114-.168.0273-.3535.041-.5567.041-.3711,0-.6953-.0606-.9726-.1817-.2735-.125-.4844-.3242-.6328-.5976s-.2227-.6328-.2227-1.0781v-6.1641Zm8.4141,2.9473v4.957h-1.6875v-6.3398h1.5879l.0996,1.3828Zm1.9101-1.4239l-.0293,1.5645c-.082-.0117-.1816-.0215-.2988-.0293-.1133-.0117-.2168-.0176-.3105-.0176-.2383,0-.4454.0313-.6211.0938-.1719.0586-.3164.1465-.4336.2636-.1133.1172-.1992.2598-.2578.4278-.0547.1679-.086.3593-.0938.5742l-.3398-.1055c0-.4101.041-.7871.123-1.1308.082-.3477.2012-.6504.3574-.9082.1602-.2578.3555-.4571.586-.5977s.4941-.2109.791-.2109c.0937,0,.1894.0078.2871.0234.0977.0117.1777.0293.2402.0527Zm3.5977,6.4981c-.4922,0-.9336-.0781-1.3242-.2344-.3907-.1601-.7227-.3808-.9961-.6621-.2696-.2812-.4766-.6074-.6211-.9785-.1445-.375-.2168-.7734-.2168-1.1953v-.2344c0-.4805.0683-.9199.2051-1.3184.1367-.3984.332-.7441.5859-1.0371.2578-.2929.5703-.5175.9375-.6738.3672-.1602.7812-.2402,1.2422-.2402.4492,0,.8476.0742,1.1953.2226.3477.1485.6387.3594.873.6328.2383.2735.418.6016.5391.9844.1211.3789.1816.8008.1816,1.2656v.7032h-5.039v-1.125h3.3808v-.1289c0-.2344-.0429-.4434-.1289-.627-.082-.1875-.207-.3359-.375-.4453s-.3828-.1641-.6445-.1641c-.2226,0-.4141.0489-.5742.1465s-.291.2344-.3926.4102c-.0976.1758-.1719.3828-.2226.6211-.0469.2343-.0704.4921-.0704.7734v.2344c0,.2539.0352.4883.1055.7031.0742.2148.1777.4004.3106.5566.1367.1563.3007.2774.4921.3633.1954.086.4161.1289.6622.1289.3046,0,.5878-.0586.8496-.1758.2656-.121.4941-.3027.6855-.5449l.8203.8907c-.1328.1914-.3144.375-.5449.5507-.2266.1758-.5.3203-.8203.4336-.3203.1094-.6856.1641-1.0957.1641Zm6.9902-1.8692c0-.121-.0351-.2304-.1054-.3281-.0704-.0976-.2012-.1875-.3926-.2695-.1875-.0859-.459-.1641-.8145-.2344-.3203-.0703-.6191-.1582-.8965-.2637-.2734-.1093-.5117-.2402-.7148-.3925-.1992-.1524-.3555-.3321-.4688-.5391-.1132-.2109-.1699-.4512-.1699-.7207c0-.2656.0567-.5156.1699-.75.1172-.2344.2832-.4414.4981-.6211.2187-.1836.4844-.3262.7969-.4277.3164-.1055.6718-.1582,1.0664-.1582.5508,0,1.0234.0879,1.4179.2636.3985.1758.7032.418.9141.7266.2148.3047.3223.6523.3223,1.043h-1.6875c0-.1641-.0352-.3106-.1055-.4395-.0664-.1328-.1719-.2363-.3164-.3105-.1406-.0782-.3242-.1172-.5508-.1172-.1875,0-.3496.0332-.4863.0996-.1367.0625-.2422.1484-.3164.2578-.0703.1055-.1055.2227-.1055.3516c0,.0976.0195.1855.0586.2636.043.0743.1113.1426.2051.2051.0937.0625.2148.1211.3633.1758.1523.0508.3398.0977.5625.1406.457.0938.8652.2168,1.2246.3692.3593.1484.6445.3515.8554.6093.211.2539.3164.5879.3164,1.002c0,.2812-.0625.5391-.1875.7734-.125.2344-.3046.4395-.539.6153-.2344.1718-.5156.3066-.8438.4043-.3242.0937-.6894.1406-1.0957.1406-.5898,0-1.0898-.1055-1.5-.3164-.4062-.211-.7148-.4785-.9257-.8028-.2071-.3281-.3106-.664-.3106-1.0078h1.5996c.0078.2305.0664.416.1758.5567.1133.1406.2559.2422.4277.3047.1758.0625.3653.0937.5684.0937.2187,0,.4004-.0293.5449-.0879.1445-.0625.2539-.1445.3281-.2461.0782-.1054.1172-.2265.1172-.3633Zm4.4239-3.3691v7.5586h-1.6876v-8.7773h1.5645l.1231,1.2187Zm4.0136,1.8809v.123c0,.461-.0547.8887-.164,1.2832-.1055.3945-.2618.7383-.4688,1.0313-.207.289-.4648.5156-.7734.6797-.3047.1601-.6563.2402-1.0547.2402-.3867,0-.7227-.0781-1.0078-.2344-.2852-.1562-.5254-.375-.7207-.6562-.1914-.2852-.3457-.6153-.4629-.9903s-.2071-.7773-.2696-1.207v-.3223c.0625-.4609.1524-.8828.2696-1.2656.1172-.3867.2715-.7207.4629-1.0019.1953-.2852.4336-.5059.7148-.6622.2852-.1562.6192-.2343,1.002-.2343.4023,0,.7558.0761,1.0605.2285.3086.1523.5664.3711.7735.6562.2109.2852.3691.625.4746,1.0196.1093.3945.164.832.164,1.3125Zm-1.6933.123v-.123c0-.2696-.0235-.5176-.0703-.7442-.043-.2304-.1133-.4316-.211-.6035-.0937-.1719-.2187-.3047-.375-.3984-.1523-.0977-.3379-.1465-.5566-.1465-.2305,0-.4278.0371-.5918.1113-.1602.0742-.291.1817-.3926.3223s-.1777.3086-.2285.5039-.0821.416-.0938.6621v.8144c.0196.2891.0743.5489.1641.7793.0898.2266.2285.4063.416.5391s.4336.1992.7383.1992c.2226,0,.4101-.0488.5625-.1465.1523-.1015.2754-.2402.3691-.416.0977-.1758.166-.3789.2051-.6093.043-.2305.0645-.4786.0645-.7442Zm2.4726.0117v-.123c0-.4649.0664-.8926.1992-1.2832.1329-.3945.3262-.7363.5801-1.0254s.5664-.5137.9375-.6738c.3711-.1641.7969-.2461,1.2774-.2461s.9082.082,1.2832.2461c.375.1601.6894.3847.9433.6738.2578.2891.4531.6309.586,1.0254.1328.3906.1992.8183.1992,1.2832v.123c0,.461-.0664.8887-.1992,1.2832-.1329.3907-.3282.7325-.586,1.0254-.2539.2891-.5664.5137-.9375.6739-.3711.1601-.7969.2402-1.2773.2402-.4805,0-.9082-.0801-1.2832-.2402-.3711-.1602-.6856-.3848-.9434-.6739-.2539-.2929-.4472-.6347-.5801-1.0254-.1328-.3945-.1992-.8222-.1992-1.2832Zm1.6875-.123v.123c0,.2657.0235.5137.0703.7442.0469.2304.1211.4336.2227.6093.1055.1719.2422.3067.4101.4043.168.0977.3731.1465.6153.1465.2344,0,.4355-.0488.6035-.1465s.3027-.2324.4043-.4043c.1016-.1757.1758-.3789.2226-.6093.0508-.2305.0762-.4785.0762-.7442v-.123c0-.2578-.0254-.5-.0762-.7266-.0468-.2304-.123-.4336-.2285-.6094-.1015-.1796-.2363-.3203-.4043-.4218s-.3711-.1524-.6093-.1524-.4414.0508-.6094.1524c-.1641.1015-.2988.2422-.4043.4218-.1016.1758-.1758.379-.2227.6094-.0468.2266-.0703.4688-.0703.7266Zm7.0078-1.7578v4.9863h-1.6875v-6.3398h1.5821l.1054,1.3535Zm-.2461,1.5937h-.457c0-.4687.0606-.8906.1816-1.2656.1211-.3789.2911-.7012.5098-.9668.2188-.2695.4785-.4746.7793-.6152.3047-.1446.6445-.2168,1.0195-.2168.2969,0,.5684.0429.8145.1289.2461.0859.457.2226.6328.4101.1797.1875.3164.4356.4102.7442.0976.3086.1464.6855.1464,1.1308v4.043h-1.6992v-4.0488c0-.2813-.039-.5-.1172-.6563-.0781-.1562-.1933-.2656-.3457-.3281-.1484-.0664-.332-.0996-.5507-.0996-.2266,0-.4239.0449-.5918.1348-.1641.0898-.3008.2148-.4102.375-.1055.1562-.1855.3398-.2402.5507s-.0821.4375-.0821.6797Zm9.0645,2.0098v-7.6172h1.6992v9h-1.5293l-.1699-1.3828Zm-4.0078-1.711v-.123c0-.4844.0547-.9238.164-1.3184.1094-.3984.2696-.7402.4805-1.0253s.4707-.5059.7793-.6622.6602-.2343,1.0547-.2343c.3711,0,.6953.0781.9727.2343.2812.1563.5195.3789.7148.668.1992.2852.3594.6231.4805,1.0137.1211.3867.2089.8105.2636,1.2715v.2695c-.0547.4414-.1425.8516-.2636,1.2305s-.2813.7109-.4805.9961c-.1953.2812-.4336.5-.7148.6562-.2813.1563-.6094.2344-.9844.2344-.3946,0-.7461-.0801-1.0547-.2402-.3047-.1602-.5625-.3848-.7735-.6739-.207-.289-.3652-.6289-.4746-1.0195s-.164-.8164-.164-1.2774Zm1.6875-.123v.123c0,.2618.0195.5059.0586.7325.0429.2265.1113.4277.2051.6035.0976.1719.2226.3066.375.4043.1562.0937.3457.1406.5683.1406.2891,0,.5274-.0644.7149-.1933.1875-.1329.33-.3145.4277-.545.1015-.2304.1601-.4961.1758-.7968v-.7676c-.0117-.2461-.0469-.4668-.1055-.6621-.0547-.1993-.1367-.3692-.2461-.5098-.1055-.1406-.2383-.25-.3984-.3281-.1563-.0782-.3418-.1172-.5567-.1172-.2187,0-.4062.0508-.5625.1523-.1562.0977-.2832.2325-.3808.4043-.0938.1719-.1641.375-.211.6094-.0429.2305-.0644.4805-.0644.75Zm7.1191-3.123v6.3398h-1.6933v-6.3398h1.6933Zm-1.7988-1.6524c0-.2461.0859-.4492.2578-.6094s.4023-.2402.6914-.2402c.2852,0,.5137.0801.6856.2402.1757.1602.2636.3633.2636.6094s-.0879.4492-.2636.6094c-.1719.1601-.4004.2402-.6856.2402-.2891,0-.5195-.0801-.6914-.2402s-.2578-.3633-.2578-.6094Zm4.8457,3.0059v4.9863h-1.6875v-6.3398h1.582l.1055,1.3535ZM75.75,29.6074h-.457c0-.4687.0605-.8906.1816-1.2656.1211-.3789.291-.7012.5098-.9668.2187-.2695.4785-.4746.7793-.6152.3047-.1446.6445-.2168,1.0195-.2168.2969,0,.5684.0429.8145.1289.2461.0859.457.2226.6328.4101.1797.1875.3164.4356.4101.7442.0977.3086.1465.6855.1465,1.1308v4.043h-1.6992v-4.0488c0-.2813-.0391-.5-.1172-.6563-.0781-.1562-.1934-.2656-.3457-.3281-.1484-.0664-.332-.0996-.5508-.0996-.2265,0-.4238.0449-.5918.1348-.164.0898-.3008.2148-.4101.375-.1055.1562-.1856.3398-.2403.5507s-.082.4375-.082.6797Zm9.334-2.9472h1.5293v6.1289c0,.5781-.1289,1.0683-.3867,1.4707-.2539.4062-.6094.7129-1.0664.9199-.4571.2109-.9883.3164-1.5938.3164-.2656,0-.5469-.0352-.8437-.1055-.293-.0703-.5743-.1797-.8438-.3281-.2656-.1484-.4883-.3359-.668-.5625l.7442-.9961c.1953.2266.4219.4023.6797.5273.2578.129.5429.1934.8554.1934.3047,0,.5625-.0566.7735-.1699.2109-.1094.373-.2715.4863-.4863.1133-.211.1699-.4668.1699-.7676v-4.6758l.1641-1.4648Zm-4.2656,3.246v-.123c0-.4844.0586-.9238.1757-1.3184.1211-.3984.2911-.7402.5098-1.0253.2227-.2852.4922-.5059.8086-.6622s.6738-.2343,1.0723-.2343c.4218,0,.7754.0781,1.0605.2343.2852.1563.5195.3789.7031.668.1836.2852.3262.6231.4278,1.0137.1054.3867.1875.8105.2461,1.2715v.2695c-.0586.4414-.1465.8516-.2637,1.2305s-.2715.7109-.4629.9961c-.1914.2812-.4297.5-.7148.6562-.2813.1563-.6172.2344-1.0079.2344s-.7441-.0801-1.0605-.2402c-.3125-.1602-.5801-.3848-.8027-.6739-.2227-.289-.3946-.6289-.5157-1.0195-.1171-.3906-.1757-.8164-.1757-1.2774Zm1.6875-.123v.123c0,.2618.0253.5059.0761.7325s.1289.4277.2344.6035c.1094.1719.2441.3066.4043.4043.1641.0937.3574.1406.5801.1406.3086,0,.5605-.0644.7558-.1933.1954-.1329.3418-.3145.4395-.545s.1543-.4961.1699-.7968v-.7676c-.0078-.2461-.041-.4668-.0996-.6621-.0586-.1993-.1406-.3692-.2461-.5098s-.2422-.25-.4101-.3281c-.168-.0782-.3672-.1172-.5977-.1172-.2227,0-.416.0508-.5801.1523-.1601.0977-.2949.2325-.4043.4043-.1054.1719-.1855.375-.2402.6094-.0547.2305-.082.4805-.082.75Z" fill="#eb00ff"/><g id="ei96IJVmScg10_tr" transform="translate(12,11) rotate(0)"><g transform="translate(-12,-11)"><rect width="3" height="5" rx="0" ry="0" transform="translate(11 3)" fill="#2d2d2d"/><rect width="3" height="5" rx="0" ry="0" transform="translate(10 14)" fill="#2d2d2d"/></g></g></svg>