<svg width="93" height="40" viewBox="0 0 93 40" fill="none" xmlns="http://www.w3.org/2000/svg">
<rect width="93" height="40" rx="5" fill="#2D2D2D"/>
<circle cx="12" cy="11" r="4.75" stroke="#EB00FF" stroke-width="2.5"/>
<circle cx="24" cy="11" r="1" fill="#EB00FF"/>
<circle cx="29" cy="11" r="1" fill="#EB00FF"/>
<circle cx="34" cy="11" r="1" fill="#EB00FF"/>
<circle cx="39" cy="11" r="1" fill="#EB00FF"/>
<circle cx="44" cy="11" r="1" fill="#EB00FF"/>
<path d="M6.65625 24H8.34375V31.5469L8.17383 33H6.65625V24ZM12.3574 29.7656V29.8887C12.3574 30.3613 12.3066 30.7949 12.2051 31.1895C12.1074 31.584 11.9551 31.9258 11.748 32.2148C11.541 32.5 11.2832 32.7227 10.9746 32.8828C10.6699 33.0391 10.3105 33.1172 9.89648 33.1172C9.50977 33.1172 9.17383 33.0391 8.88867 32.8828C8.60742 32.7266 8.37109 32.5059 8.17969 32.2207C7.98828 31.9355 7.83398 31.6016 7.7168 31.2188C7.59961 30.8359 7.51172 30.418 7.45312 29.9648V29.6953C7.51172 29.2422 7.59961 28.8242 7.7168 28.4414C7.83398 28.0586 7.98828 27.7246 8.17969 27.4395C8.37109 27.1543 8.60742 26.9336 8.88867 26.7773C9.16992 26.6211 9.50195 26.543 9.88477 26.543C10.3027 26.543 10.666 26.623 10.9746 26.7832C11.2871 26.9395 11.5449 27.1621 11.748 27.4512C11.9551 27.7363 12.1074 28.0762 12.2051 28.4707C12.3066 28.8613 12.3574 29.293 12.3574 29.7656ZM10.6699 29.8887V29.7656C10.6699 29.5078 10.6504 29.2656 10.6113 29.0391C10.5762 28.8086 10.5137 28.6074 10.4238 28.4355C10.334 28.2598 10.2109 28.1211 10.0547 28.0195C9.90234 27.918 9.70508 27.8672 9.46289 27.8672C9.23242 27.8672 9.03711 27.9062 8.87695 27.9844C8.7168 28.0625 8.58398 28.1719 8.47852 28.3125C8.37695 28.4531 8.30078 28.6211 8.25 28.8164C8.19922 29.0078 8.16797 29.2188 8.15625 29.4492V30.2168C8.16797 30.5254 8.21875 30.7988 8.30859 31.0371C8.40234 31.2715 8.54297 31.457 8.73047 31.5938C8.92188 31.7266 9.16992 31.793 9.47461 31.793C9.71289 31.793 9.91016 31.7461 10.0664 31.6523C10.2227 31.5586 10.3438 31.4258 10.4297 31.2539C10.5195 31.082 10.582 30.8809 10.6172 30.6504C10.6523 30.416 10.6699 30.1621 10.6699 29.8887ZM13.1367 29.8945V29.7715C13.1367 29.3066 13.2031 28.8789 13.3359 28.4883C13.4688 28.0938 13.6621 27.752 13.916 27.4629C14.1699 27.1738 14.4824 26.9492 14.8535 26.7891C15.2246 26.625 15.6504 26.543 16.1309 26.543C16.6113 26.543 17.0391 26.625 17.4141 26.7891C17.7891 26.9492 18.1035 27.1738 18.3574 27.4629C18.6152 27.752 18.8105 28.0938 18.9434 28.4883C19.0762 28.8789 19.1426 29.3066 19.1426 29.7715V29.8945C19.1426 30.3555 19.0762 30.7832 18.9434 31.1777C18.8105 31.5684 18.6152 31.9102 18.3574 32.2031C18.1035 32.4922 17.791 32.7168 17.4199 32.877C17.0488 33.0371 16.623 33.1172 16.1426 33.1172C15.6621 33.1172 15.2344 33.0371 14.8594 32.877C14.4883 32.7168 14.1738 32.4922 13.916 32.2031C13.6621 31.9102 13.4688 31.5684 13.3359 31.1777C13.2031 30.7832 13.1367 30.3555 13.1367 29.8945ZM14.8242 29.7715V29.8945C14.8242 30.1602 14.8477 30.4082 14.8945 30.6387C14.9414 30.8691 15.0156 31.0723 15.1172 31.248C15.2227 31.4199 15.3594 31.5547 15.5273 31.6523C15.6953 31.75 15.9004 31.7988 16.1426 31.7988C16.377 31.7988 16.5781 31.75 16.7461 31.6523C16.9141 31.5547 17.0488 31.4199 17.1504 31.248C17.252 31.0723 17.3262 30.8691 17.373 30.6387C17.4238 30.4082 17.4492 30.1602 17.4492 29.8945V29.7715C17.4492 29.5137 17.4238 29.2715 17.373 29.0449C17.3262 28.8145 17.25 28.6113 17.1445 28.4355C17.043 28.2559 16.9082 28.1152 16.7402 28.0137C16.5723 27.9121 16.3691 27.8613 16.1309 27.8613C15.8926 27.8613 15.6895 27.9121 15.5215 28.0137C15.3574 28.1152 15.2227 28.2559 15.1172 28.4355C15.0156 28.6113 14.9414 28.8145 14.8945 29.0449C14.8477 29.2715 14.8242 29.5137 14.8242 29.7715ZM23.2852 26.6602V27.8555H19.5938V26.6602H23.2852ZM20.5078 25.0957H22.1953V31.0898C22.1953 31.2734 22.2188 31.4141 22.2656 31.5117C22.3164 31.6094 22.3906 31.6777 22.4883 31.7168C22.5859 31.752 22.709 31.7695 22.8574 31.7695C22.9629 31.7695 23.0566 31.7656 23.1387 31.7578C23.2246 31.7461 23.2969 31.7344 23.3555 31.7227L23.3613 32.9648C23.2168 33.0117 23.0605 33.0488 22.8926 33.0762C22.7246 33.1035 22.5391 33.1172 22.3359 33.1172C21.9648 33.1172 21.6406 33.0566 21.3633 32.9355C21.0898 32.8105 20.8789 32.6113 20.7305 32.3379C20.582 32.0645 20.5078 31.7051 20.5078 31.2598V25.0957ZM28.9219 28.043V33H27.2344V26.6602H28.8223L28.9219 28.043ZM30.832 26.6191L30.8027 28.1836C30.7207 28.1719 30.6211 28.1621 30.5039 28.1543C30.3906 28.1426 30.2871 28.1367 30.1934 28.1367C29.9551 28.1367 29.748 28.168 29.5723 28.2305C29.4004 28.2891 29.2559 28.377 29.1387 28.4941C29.0254 28.6113 28.9395 28.7539 28.8809 28.9219C28.8262 29.0898 28.7949 29.2812 28.7871 29.4961L28.4473 29.3906C28.4473 28.9805 28.4883 28.6035 28.5703 28.2598C28.6523 27.9121 28.7715 27.6094 28.9277 27.3516C29.0879 27.0938 29.2832 26.8945 29.5137 26.7539C29.7441 26.6133 30.0078 26.543 30.3047 26.543C30.3984 26.543 30.4941 26.5508 30.5918 26.5664C30.6895 26.5781 30.7695 26.5957 30.832 26.6191ZM34.4297 33.1172C33.9375 33.1172 33.4961 33.0391 33.1055 32.8828C32.7148 32.7227 32.3828 32.502 32.1094 32.2207C31.8398 31.9395 31.6328 31.6133 31.4883 31.2422C31.3438 30.8672 31.2715 30.4688 31.2715 30.0469V29.8125C31.2715 29.332 31.3398 28.8926 31.4766 28.4941C31.6133 28.0957 31.8086 27.75 32.0625 27.457C32.3203 27.1641 32.6328 26.9395 33 26.7832C33.3672 26.623 33.7812 26.543 34.2422 26.543C34.6914 26.543 35.0898 26.6172 35.4375 26.7656C35.7852 26.9141 36.0762 27.125 36.3105 27.3984C36.5488 27.6719 36.7285 28 36.8496 28.3828C36.9707 28.7617 37.0312 29.1836 37.0312 29.6484V30.3516H31.9922V29.2266H35.373V29.0977C35.373 28.8633 35.3301 28.6543 35.2441 28.4707C35.1621 28.2832 35.0371 28.1348 34.8691 28.0254C34.7012 27.916 34.4863 27.8613 34.2246 27.8613C34.002 27.8613 33.8105 27.9102 33.6504 28.0078C33.4902 28.1055 33.3594 28.2422 33.2578 28.418C33.1602 28.5938 33.0859 28.8008 33.0352 29.0391C32.9883 29.2734 32.9648 29.5312 32.9648 29.8125V30.0469C32.9648 30.3008 33 30.5352 33.0703 30.75C33.1445 30.9648 33.248 31.1504 33.3809 31.3066C33.5176 31.4629 33.6816 31.584 33.873 31.6699C34.0684 31.7559 34.2891 31.7988 34.5352 31.7988C34.8398 31.7988 35.123 31.7402 35.3848 31.623C35.6504 31.502 35.8789 31.3203 36.0703 31.0781L36.8906 31.9688C36.7578 32.1602 36.5762 32.3438 36.3457 32.5195C36.1191 32.6953 35.8457 32.8398 35.5254 32.9531C35.2051 33.0625 34.8398 33.1172 34.4297 33.1172ZM41.4199 31.248C41.4199 31.127 41.3848 31.0176 41.3145 30.9199C41.2441 30.8223 41.1133 30.7324 40.9219 30.6504C40.7344 30.5645 40.4629 30.4863 40.1074 30.416C39.7871 30.3457 39.4883 30.2578 39.2109 30.1523C38.9375 30.043 38.6992 29.9121 38.4961 29.7598C38.2969 29.6074 38.1406 29.4277 38.0273 29.2207C37.9141 29.0098 37.8574 28.7695 37.8574 28.5C37.8574 28.2344 37.9141 27.9844 38.0273 27.75C38.1445 27.5156 38.3105 27.3086 38.5254 27.1289C38.7441 26.9453 39.0098 26.8027 39.3223 26.7012C39.6387 26.5957 39.9941 26.543 40.3887 26.543C40.9395 26.543 41.4121 26.6309 41.8066 26.8066C42.2051 26.9824 42.5098 27.2246 42.7207 27.5332C42.9355 27.8379 43.043 28.1855 43.043 28.5762H41.3555C41.3555 28.4121 41.3203 28.2656 41.25 28.1367C41.1836 28.0039 41.0781 27.9004 40.9336 27.8262C40.793 27.748 40.6094 27.709 40.3828 27.709C40.1953 27.709 40.0332 27.7422 39.8965 27.8086C39.7598 27.8711 39.6543 27.957 39.5801 28.0664C39.5098 28.1719 39.4746 28.2891 39.4746 28.418C39.4746 28.5156 39.4941 28.6035 39.5332 28.6816C39.5762 28.7559 39.6445 28.8242 39.7383 28.8867C39.832 28.9492 39.9531 29.0078 40.1016 29.0625C40.2539 29.1133 40.4414 29.1602 40.6641 29.2031C41.1211 29.2969 41.5293 29.4199 41.8887 29.5723C42.248 29.7207 42.5332 29.9238 42.7441 30.1816C42.9551 30.4355 43.0605 30.7695 43.0605 31.1836C43.0605 31.4648 42.998 31.7227 42.873 31.957C42.748 32.1914 42.5684 32.3965 42.334 32.5723C42.0996 32.7441 41.8184 32.8789 41.4902 32.9766C41.166 33.0703 40.8008 33.1172 40.3945 33.1172C39.8047 33.1172 39.3047 33.0117 38.8945 32.8008C38.4883 32.5898 38.1797 32.3223 37.9688 31.998C37.7617 31.6699 37.6582 31.334 37.6582 30.9902H39.2578C39.2656 31.2207 39.3242 31.4062 39.4336 31.5469C39.5469 31.6875 39.6895 31.7891 39.8613 31.8516C40.0371 31.9141 40.2266 31.9453 40.4297 31.9453C40.6484 31.9453 40.8301 31.916 40.9746 31.8574C41.1191 31.7949 41.2285 31.7129 41.3027 31.6113C41.3809 31.5059 41.4199 31.3848 41.4199 31.248ZM45.8438 27.8789V35.4375H44.1562V26.6602H45.7207L45.8438 27.8789ZM49.8574 29.7598V29.8828C49.8574 30.3438 49.8027 30.7715 49.6934 31.166C49.5879 31.5605 49.4316 31.9043 49.2246 32.1973C49.0176 32.4863 48.7598 32.7129 48.4512 32.877C48.1465 33.0371 47.7949 33.1172 47.3965 33.1172C47.0098 33.1172 46.6738 33.0391 46.3887 32.8828C46.1035 32.7266 45.8633 32.5078 45.668 32.2266C45.4766 31.9414 45.3223 31.6113 45.2051 31.2363C45.0879 30.8613 44.998 30.459 44.9355 30.0293V29.707C44.998 29.2461 45.0879 28.8242 45.2051 28.4414C45.3223 28.0547 45.4766 27.7207 45.668 27.4395C45.8633 27.1543 46.1016 26.9336 46.3828 26.7773C46.668 26.6211 47.002 26.543 47.3848 26.543C47.7871 26.543 48.1406 26.6191 48.4453 26.7715C48.7539 26.9238 49.0117 27.1426 49.2188 27.4277C49.4297 27.7129 49.5879 28.0527 49.6934 28.4473C49.8027 28.8418 49.8574 29.2793 49.8574 29.7598ZM48.1641 29.8828V29.7598C48.1641 29.4902 48.1406 29.2422 48.0938 29.0156C48.0508 28.7852 47.9805 28.584 47.8828 28.4121C47.7891 28.2402 47.6641 28.1074 47.5078 28.0137C47.3555 27.916 47.1699 27.8672 46.9512 27.8672C46.7207 27.8672 46.5234 27.9043 46.3594 27.9785C46.1992 28.0527 46.0684 28.1602 45.9668 28.3008C45.8652 28.4414 45.7891 28.6094 45.7383 28.8047C45.6875 29 45.6562 29.2207 45.6445 29.4668V30.2812C45.6641 30.5703 45.7188 30.8301 45.8086 31.0605C45.8984 31.2871 46.0371 31.4668 46.2246 31.5996C46.4121 31.7324 46.6582 31.7988 46.9629 31.7988C47.1855 31.7988 47.373 31.75 47.5254 31.6523C47.6777 31.5508 47.8008 31.4121 47.8945 31.2363C47.9922 31.0605 48.0605 30.8574 48.0996 30.627C48.1426 30.3965 48.1641 30.1484 48.1641 29.8828ZM50.6367 29.8945V29.7715C50.6367 29.3066 50.7031 28.8789 50.8359 28.4883C50.9688 28.0938 51.1621 27.752 51.416 27.4629C51.6699 27.1738 51.9824 26.9492 52.3535 26.7891C52.7246 26.625 53.1504 26.543 53.6309 26.543C54.1113 26.543 54.5391 26.625 54.9141 26.7891C55.2891 26.9492 55.6035 27.1738 55.8574 27.4629C56.1152 27.752 56.3105 28.0938 56.4434 28.4883C56.5762 28.8789 56.6426 29.3066 56.6426 29.7715V29.8945C56.6426 30.3555 56.5762 30.7832 56.4434 31.1777C56.3105 31.5684 56.1152 31.9102 55.8574 32.2031C55.6035 32.4922 55.291 32.7168 54.9199 32.877C54.5488 33.0371 54.123 33.1172 53.6426 33.1172C53.1621 33.1172 52.7344 33.0371 52.3594 32.877C51.9883 32.7168 51.6738 32.4922 51.416 32.2031C51.1621 31.9102 50.9688 31.5684 50.8359 31.1777C50.7031 30.7832 50.6367 30.3555 50.6367 29.8945ZM52.3242 29.7715V29.8945C52.3242 30.1602 52.3477 30.4082 52.3945 30.6387C52.4414 30.8691 52.5156 31.0723 52.6172 31.248C52.7227 31.4199 52.8594 31.5547 53.0273 31.6523C53.1953 31.75 53.4004 31.7988 53.6426 31.7988C53.877 31.7988 54.0781 31.75 54.2461 31.6523C54.4141 31.5547 54.5488 31.4199 54.6504 31.248C54.752 31.0723 54.8262 30.8691 54.873 30.6387C54.9238 30.4082 54.9492 30.1602 54.9492 29.8945V29.7715C54.9492 29.5137 54.9238 29.2715 54.873 29.0449C54.8262 28.8145 54.75 28.6113 54.6445 28.4355C54.543 28.2559 54.4082 28.1152 54.2402 28.0137C54.0723 27.9121 53.8691 27.8613 53.6309 27.8613C53.3926 27.8613 53.1895 27.9121 53.0215 28.0137C52.8574 28.1152 52.7227 28.2559 52.6172 28.4355C52.5156 28.6113 52.4414 28.8145 52.3945 29.0449C52.3477 29.2715 52.3242 29.5137 52.3242 29.7715ZM59.332 28.0137V33H57.6445V26.6602H59.2266L59.332 28.0137ZM59.0859 29.6074H58.6289C58.6289 29.1387 58.6895 28.7168 58.8105 28.3418C58.9316 27.9629 59.1016 27.6406 59.3203 27.375C59.5391 27.1055 59.7988 26.9004 60.0996 26.7598C60.4043 26.6152 60.7441 26.543 61.1191 26.543C61.416 26.543 61.6875 26.5859 61.9336 26.6719C62.1797 26.7578 62.3906 26.8945 62.5664 27.082C62.7461 27.2695 62.8828 27.5176 62.9766 27.8262C63.0742 28.1348 63.123 28.5117 63.123 28.957V33H61.4238V28.9512C61.4238 28.6699 61.3848 28.4512 61.3066 28.2949C61.2285 28.1387 61.1133 28.0293 60.9609 27.9668C60.8125 27.9004 60.6289 27.8672 60.4102 27.8672C60.1836 27.8672 59.9863 27.9121 59.8184 28.002C59.6543 28.0918 59.5176 28.2168 59.4082 28.377C59.3027 28.5332 59.2227 28.7168 59.168 28.9277C59.1133 29.1387 59.0859 29.3652 59.0859 29.6074ZM68.1504 31.6172V24H69.8496V33H68.3203L68.1504 31.6172ZM64.1426 29.9062V29.7832C64.1426 29.2988 64.1973 28.8594 64.3066 28.4648C64.416 28.0664 64.5762 27.7246 64.7871 27.4395C64.998 27.1543 65.2578 26.9336 65.5664 26.7773C65.875 26.6211 66.2266 26.543 66.6211 26.543C66.9922 26.543 67.3164 26.6211 67.5938 26.7773C67.875 26.9336 68.1133 27.1562 68.3086 27.4453C68.5078 27.7305 68.668 28.0684 68.7891 28.459C68.9102 28.8457 68.998 29.2695 69.0527 29.7305V30C68.998 30.4414 68.9102 30.8516 68.7891 31.2305C68.668 31.6094 68.5078 31.9414 68.3086 32.2266C68.1133 32.5078 67.875 32.7266 67.5938 32.8828C67.3125 33.0391 66.9844 33.1172 66.6094 33.1172C66.2148 33.1172 65.8633 33.0371 65.5547 32.877C65.25 32.7168 64.9922 32.4922 64.7812 32.2031C64.5742 31.9141 64.416 31.5742 64.3066 31.1836C64.1973 30.793 64.1426 30.3672 64.1426 29.9062ZM65.8301 29.7832V29.9062C65.8301 30.168 65.8496 30.4121 65.8887 30.6387C65.9316 30.8652 66 31.0664 66.0938 31.2422C66.1914 31.4141 66.3164 31.5488 66.4688 31.6465C66.625 31.7402 66.8145 31.7871 67.0371 31.7871C67.3262 31.7871 67.5645 31.7227 67.752 31.5938C67.9395 31.4609 68.082 31.2793 68.1797 31.0488C68.2812 30.8184 68.3398 30.5527 68.3555 30.252V29.4844C68.3438 29.2383 68.3086 29.0176 68.25 28.8223C68.1953 28.623 68.1133 28.4531 68.0039 28.3125C67.8984 28.1719 67.7656 28.0625 67.6055 27.9844C67.4492 27.9062 67.2637 27.8672 67.0488 27.8672C66.8301 27.8672 66.6426 27.918 66.4863 28.0195C66.3301 28.1172 66.2031 28.252 66.1055 28.4238C66.0117 28.5957 65.9414 28.7988 65.8945 29.0332C65.8516 29.2637 65.8301 29.5137 65.8301 29.7832ZM72.9492 26.6602V33H71.2559V26.6602H72.9492ZM71.1504 25.0078C71.1504 24.7617 71.2363 24.5586 71.4082 24.3984C71.5801 24.2383 71.8105 24.1582 72.0996 24.1582C72.3848 24.1582 72.6133 24.2383 72.7852 24.3984C72.9609 24.5586 73.0488 24.7617 73.0488 25.0078C73.0488 25.2539 72.9609 25.457 72.7852 25.6172C72.6133 25.7773 72.3848 25.8574 72.0996 25.8574C71.8105 25.8574 71.5801 25.7773 71.4082 25.6172C71.2363 25.457 71.1504 25.2539 71.1504 25.0078ZM75.9961 28.0137V33H74.3086V26.6602H75.8906L75.9961 28.0137ZM75.75 29.6074H75.293C75.293 29.1387 75.3535 28.7168 75.4746 28.3418C75.5957 27.9629 75.7656 27.6406 75.9844 27.375C76.2031 27.1055 76.4629 26.9004 76.7637 26.7598C77.0684 26.6152 77.4082 26.543 77.7832 26.543C78.0801 26.543 78.3516 26.5859 78.5977 26.6719C78.8438 26.7578 79.0547 26.8945 79.2305 27.082C79.4102 27.2695 79.5469 27.5176 79.6406 27.8262C79.7383 28.1348 79.7871 28.5117 79.7871 28.957V33H78.0879V28.9512C78.0879 28.6699 78.0488 28.4512 77.9707 28.2949C77.8926 28.1387 77.7773 28.0293 77.625 27.9668C77.4766 27.9004 77.293 27.8672 77.0742 27.8672C76.8477 27.8672 76.6504 27.9121 76.4824 28.002C76.3184 28.0918 76.1816 28.2168 76.0723 28.377C75.9668 28.5332 75.8867 28.7168 75.832 28.9277C75.7773 29.1387 75.75 29.3652 75.75 29.6074ZM85.084 26.6602H86.6133V32.7891C86.6133 33.3672 86.4844 33.8574 86.2266 34.2598C85.9727 34.666 85.6172 34.9727 85.1602 35.1797C84.7031 35.3906 84.1719 35.4961 83.5664 35.4961C83.3008 35.4961 83.0195 35.4609 82.7227 35.3906C82.4297 35.3203 82.1484 35.2109 81.8789 35.0625C81.6133 34.9141 81.3906 34.7266 81.2109 34.5L81.9551 33.5039C82.1504 33.7305 82.377 33.9062 82.6348 34.0312C82.8926 34.1602 83.1777 34.2246 83.4902 34.2246C83.7949 34.2246 84.0527 34.168 84.2637 34.0547C84.4746 33.9453 84.6367 33.7832 84.75 33.5684C84.8633 33.3574 84.9199 33.1016 84.9199 32.8008V28.125L85.084 26.6602ZM80.8184 29.9062V29.7832C80.8184 29.2988 80.877 28.8594 80.9941 28.4648C81.1152 28.0664 81.2852 27.7246 81.5039 27.4395C81.7266 27.1543 81.9961 26.9336 82.3125 26.7773C82.6289 26.6211 82.9863 26.543 83.3848 26.543C83.8066 26.543 84.1602 26.6211 84.4453 26.7773C84.7305 26.9336 84.9648 27.1562 85.1484 27.4453C85.332 27.7305 85.4746 28.0684 85.5762 28.459C85.6816 28.8457 85.7637 29.2695 85.8223 29.7305V30C85.7637 30.4414 85.6758 30.8516 85.5586 31.2305C85.4414 31.6094 85.2871 31.9414 85.0957 32.2266C84.9043 32.5078 84.666 32.7266 84.3809 32.8828C84.0996 33.0391 83.7637 33.1172 83.373 33.1172C82.9824 33.1172 82.6289 33.0371 82.3125 32.877C82 32.7168 81.7324 32.4922 81.5098 32.2031C81.2871 31.9141 81.1152 31.5742 80.9941 31.1836C80.877 30.793 80.8184 30.3672 80.8184 29.9062ZM82.5059 29.7832V29.9062C82.5059 30.168 82.5312 30.4121 82.582 30.6387C82.6328 30.8652 82.7109 31.0664 82.8164 31.2422C82.9258 31.4141 83.0605 31.5488 83.2207 31.6465C83.3848 31.7402 83.5781 31.7871 83.8008 31.7871C84.1094 31.7871 84.3613 31.7227 84.5566 31.5938C84.752 31.4609 84.8984 31.2793 84.9961 31.0488C85.0938 30.8184 85.1504 30.5527 85.166 30.252V29.4844C85.1582 29.2383 85.125 29.0176 85.0664 28.8223C85.0078 28.623 84.9258 28.4531 84.8203 28.3125C84.7148 28.1719 84.5781 28.0625 84.4102 27.9844C84.2422 27.9062 84.043 27.8672 83.8125 27.8672C83.5898 27.8672 83.3965 27.918 83.2324 28.0195C83.0723 28.1172 82.9375 28.252 82.8281 28.4238C82.7227 28.5957 82.6426 28.7988 82.5879 29.0332C82.5332 29.2637 82.5059 29.5137 82.5059 29.7832Z" fill="#EB00FF"/>
<rect x="11" y="3" width="3" height="5" fill="#2D2D2D"/>
<rect x="10" y="14" width="3" height="5" fill="#2D2D2D"/>
</svg>
