<svg width="151" height="24" viewBox="0 0 151 24" fill="none" xmlns="http://www.w3.org/2000/svg">
<path d="M30.6985 13.2594C30.353 16.1959 29.0636 18.6637 26.8304 20.6625C24.5971 22.6614 21.9751 23.6608 18.9645 23.6608C17.015 23.6608 15.1766 23.2043 13.4492 22.2912C10.2905 23.2783 7.52051 23.7348 5.13916 23.6608C2.75782 23.5867 1.19699 22.9451 0.456676 21.736C-0.332993 20.5021 -0.0985599 18.8549 1.15997 16.7944C2.41851 14.7338 4.44203 12.6054 7.23055 10.4092C7.57603 7.4479 8.86541 4.97402 11.0987 2.98751C13.332 1.001 15.9539 0.00774747 18.9645 0.00774747C20.914 0.00774747 22.7525 0.464274 24.4799 1.37733C27.6385 0.390243 30.4085 -0.0662839 32.7899 0.00774747C35.1712 0.0817789 36.7321 0.711046 37.4724 1.89555C38.262 3.15408 38.0276 4.80745 36.7691 6.85565C35.5105 8.90385 33.487 11.0384 30.6985 13.2594ZM5.04662 20.0332C5.41678 20.6995 6.16943 21.1067 7.30458 21.2548C8.43973 21.4028 9.79697 21.2794 11.3763 20.8846C9.2294 19.1078 7.89683 16.8499 7.37861 14.1107C5.05896 16.7265 4.28163 18.7007 5.04662 20.0332ZM32.8824 3.59827C32.5123 2.93199 31.7596 2.53098 30.6245 2.39526C29.4893 2.25954 28.1321 2.37675 26.5527 2.74691C28.6997 4.54834 30.0322 6.8063 30.5504 9.52078C32.8701 6.92968 33.6474 4.95551 32.8824 3.59827Z" fill="#00FFB2"/>
<path d="M56.8995 14.0592C56.8995 13.683 56.7668 13.3954 56.5012 13.1962C56.2357 12.9927 55.7577 12.7802 55.0674 12.559C54.377 12.3333 53.8304 12.112 53.4277 11.8951C52.3302 11.3021 51.7814 10.5033 51.7814 9.49873C51.7814 8.97652 51.9275 8.51185 52.2195 8.1047C52.5161 7.69313 52.9387 7.37228 53.4875 7.14215C54.0406 6.91203 54.6602 6.79696 55.3462 6.79696C56.0365 6.79696 56.6517 6.92309 57.1916 7.17534C57.7315 7.42317 58.1497 7.775 58.4462 8.23083C58.7472 8.68665 58.8976 9.20444 58.8976 9.78418H56.9062C56.9062 9.34163 56.7668 8.99865 56.4879 8.75525C56.2091 8.50742 55.8175 8.38351 55.313 8.38351C54.8262 8.38351 54.4478 8.48751 54.1778 8.6955C53.9079 8.89908 53.7729 9.16903 53.7729 9.50537C53.7729 9.81958 53.93 10.0829 54.2442 10.2953C54.5629 10.5077 55.0297 10.7069 55.6449 10.8928C56.7778 11.2335 57.6032 11.6562 58.121 12.1607C58.6387 12.6652 58.8976 13.2936 58.8976 14.0459C58.8976 14.8824 58.5812 15.5395 57.9484 16.0175C57.3155 16.491 56.4636 16.7278 55.3926 16.7278C54.6491 16.7278 53.972 16.5928 53.3613 16.3229C52.7506 16.0485 52.2837 15.6745 51.9607 15.201C51.642 14.7275 51.4827 14.1787 51.4827 13.5547H53.4808C53.4808 14.6213 54.1181 15.1545 55.3926 15.1545C55.8662 15.1545 56.2357 15.0594 56.5012 14.8691C56.7668 14.6744 56.8995 14.4044 56.8995 14.0592ZM69.4987 8.54282H66.538V16.595H64.5465V8.54282H61.6257V6.92973H69.4987V8.54282ZM77.2718 14.6036H73.7801L73.1163 16.595H70.9986L74.5966 6.92973H76.442L80.0599 16.595H77.9423L77.2718 14.6036ZM74.3178 12.9905H76.7341L75.5193 9.37261L74.3178 12.9905ZM86.512 13.0568H84.9254V16.595H82.934V6.92973H86.5253C87.667 6.92973 88.5477 7.18419 89.1673 7.69313C89.7869 8.20206 90.0967 8.9212 90.0967 9.85056C90.0967 10.51 89.9528 11.0609 89.6652 11.5035C89.3819 11.9416 88.9504 12.2912 88.3707 12.5523L90.4618 16.5021V16.595H88.3242L86.512 13.0568ZM84.9254 11.4437H86.5319C87.032 11.4437 87.4192 11.3176 87.6936 11.0654C87.968 10.8087 88.1052 10.4569 88.1052 10.0099C88.1052 9.55405 87.9746 9.19559 87.7135 8.93448C87.4568 8.67338 87.0608 8.54282 86.5253 8.54282H84.9254V11.4437ZM97.1927 13.2294H93.4553V11.6827H97.1927V13.2294Z" fill="white"/>
<path d="M100.83 16.595V6.92973H104.216C105.388 6.92973 106.278 7.15543 106.884 7.60683C107.491 8.05381 107.794 8.71099 107.794 9.57839C107.794 10.0519 107.672 10.4701 107.429 10.833C107.185 11.1915 106.847 11.4548 106.413 11.623C106.909 11.7469 107.298 11.9969 107.581 12.3731C107.869 12.7493 108.013 13.2095 108.013 13.7539C108.013 14.6832 107.716 15.3869 107.123 15.8648C106.53 16.3428 105.685 16.5862 104.587 16.595H100.83ZM102.822 12.3864V14.9952H104.528C104.997 14.9952 105.362 14.8846 105.623 14.6633C105.889 14.4376 106.021 14.1278 106.021 13.7339C106.021 12.8488 105.563 12.3997 104.647 12.3864H102.822ZM102.822 10.9791H104.295C105.3 10.9614 105.802 10.5609 105.802 9.77754C105.802 9.33941 105.674 9.0252 105.417 8.83491C105.165 8.64019 104.764 8.54282 104.216 8.54282H102.822V10.9791ZM116.941 14.6036H113.449L112.785 16.595H110.668L114.266 6.92973H116.111L119.729 16.595H117.611L116.941 14.6036ZM113.987 12.9905H116.403L115.188 9.37261L113.987 12.9905ZM127.615 14.0592C127.615 13.683 127.482 13.3954 127.217 13.1962C126.951 12.9927 126.473 12.7802 125.783 12.559C125.092 12.3333 124.546 12.112 124.143 11.8951C123.046 11.3021 122.497 10.5033 122.497 9.49873C122.497 8.97652 122.643 8.51185 122.935 8.1047C123.232 7.69313 123.654 7.37228 124.203 7.14215C124.756 6.91203 125.376 6.79696 126.062 6.79696C126.752 6.79696 127.367 6.92309 127.907 7.17534C128.447 7.42317 128.865 7.775 129.162 8.23083C129.463 8.68665 129.613 9.20444 129.613 9.78418H127.622C127.622 9.34163 127.482 8.99865 127.203 8.75525C126.925 8.50742 126.533 8.38351 126.028 8.38351C125.542 8.38351 125.163 8.48751 124.893 8.6955C124.623 8.89908 124.488 9.16903 124.488 9.50537C124.488 9.81958 124.646 10.0829 124.96 10.2953C125.278 10.5077 125.745 10.7069 126.36 10.8928C127.493 11.2335 128.319 11.6562 128.836 12.1607C129.354 12.6652 129.613 13.2936 129.613 14.0459C129.613 14.8824 129.297 15.5395 128.664 16.0175C128.031 16.491 127.179 16.7278 126.108 16.7278C125.365 16.7278 124.688 16.5928 124.077 16.3229C123.466 16.0485 122.999 15.6745 122.676 15.201C122.358 14.7275 122.198 14.1787 122.198 13.5547H124.196C124.196 14.6213 124.834 15.1545 126.108 15.1545C126.582 15.1545 126.951 15.0594 127.217 14.8691C127.482 14.6744 127.615 14.4044 127.615 14.0592ZM138.754 12.4063H134.93V14.9952H139.418V16.595H132.939V6.92973H139.404V8.54282H134.93V10.8463H138.754V12.4063ZM142.557 16.595V6.92973H145.531C146.381 6.92973 147.14 7.12224 147.808 7.50726C148.481 7.88785 149.005 8.43219 149.381 9.14027C149.758 9.84392 149.946 10.6449 149.946 11.5433V11.9881C149.946 12.8865 149.76 13.6853 149.388 14.3845C149.021 15.0837 148.501 15.6258 147.828 16.0109C147.155 16.3959 146.396 16.5906 145.551 16.595H142.557ZM144.549 8.54282V14.9952H145.511C146.29 14.9952 146.885 14.7407 147.297 14.2318C147.709 13.7229 147.919 12.9949 147.928 12.0478V11.5367C147.928 10.5542 147.724 9.81073 147.317 9.30622C146.91 8.79729 146.314 8.54282 145.531 8.54282H144.549Z" fill="#00FFB2"/>
</svg>
