<svg width="45" height="45" viewBox="0 0 45 45" fill="none" xmlns="http://www.w3.org/2000/svg">
<path d="M15.4688 2.8125H2.8125V15.4688H5.625V5.625H15.4688V2.8125Z" fill="#8A8A8A"/>
<path d="M2.8125 29.5312V42.1875H15.4688V39.375H5.625V29.5312H2.8125Z" fill="#474646"/>
<path d="M42.1875 15.4688V2.8125H29.5312V5.625H39.375V15.4688H42.1875Z" fill="#474646"/>
<path d="M29.5312 42.1875H42.1875V29.5312H39.375V39.375H29.5312V42.1875Z" fill="#8A8A8A"/>
<g filter="url(#filter0_i_326_136)">
<path d="M35.8454 14.2453L23.1891 7.21404C22.9754 7.09061 22.7329 7.02563 22.486 7.02563C22.2392 7.02563 21.9967 7.09061 21.7829 7.21404L9.12663 14.2453C8.91465 14.371 8.73941 14.5501 8.61847 14.7648C8.49754 14.9796 8.43515 15.2223 8.43757 15.4687V29.5312C8.438 29.7804 8.50463 30.025 8.63065 30.24C8.75666 30.4549 8.93754 30.6326 9.15476 30.7547L21.811 37.7859C22.0248 37.9093 22.2673 37.9743 22.5141 37.9743C22.761 37.9743 23.0035 37.9093 23.2173 37.7859L35.8735 30.7547C36.0855 30.629 36.2607 30.4498 36.3817 30.2351C36.5026 30.0204 36.565 29.7776 36.5626 29.5312V15.4687C36.5621 15.2195 36.4955 14.9749 36.3695 14.76C36.2435 14.545 36.0626 14.3674 35.8454 14.2453ZM22.5001 10.0406L32.2594 15.4687L22.5001 20.8968L12.7407 15.4687L22.5001 10.0406ZM11.2501 17.8593L21.0938 23.3297V34.1718L11.2501 28.7015V17.8593ZM23.9063 34.1718V23.3297L33.7501 17.8593V28.7015L23.9063 34.1718Z" fill="#525151"/>
</g>
<defs>
<filter id="filter0_i_326_136" x="8.4375" y="7.02563" width="28.1251" height="34.9487" filterUnits="userSpaceOnUse" color-interpolation-filters="sRGB">
<feFlood flood-opacity="0" result="BackgroundImageFix"/>
<feBlend mode="normal" in="SourceGraphic" in2="BackgroundImageFix" result="shape"/>
<feColorMatrix in="SourceAlpha" type="matrix" values="0 0 0 0 0 0 0 0 0 0 0 0 0 0 0 0 0 0 127 0" result="hardAlpha"/>
<feOffset dy="4"/>
<feGaussianBlur stdDeviation="2"/>
<feComposite in2="hardAlpha" operator="arithmetic" k2="-1" k3="1"/>
<feColorMatrix type="matrix" values="0 0 0 0 0 0 0 0 0 0 0 0 0 0 0 0 0 0 0.25 0"/>
<feBlend mode="normal" in2="shape" result="effect1_innerShadow_326_136"/>
</filter>
</defs>
</svg>
