<svg width="24" height="24" viewBox="0 0 24 24" fill="none" xmlns="http://www.w3.org/2000/svg">
<path d="M22.9014 22.9006C22.2993 23.507 21.3189 23.5084 20.7151 22.9036L13.4153 15.5924C12.634 14.8098 11.366 14.8098 10.5847 15.5924L3.28449 22.904C2.68028 23.5092 1.69979 23.5096 1.09512 22.9049V22.9049C0.490439 22.3002 0.490824 21.3197 1.09598 20.7155L8.40764 13.4153C9.19018 12.634 9.19017 11.366 8.40764 10.5847L1.09597 3.28449C0.490823 2.68028 0.490439 1.69979 1.09512 1.09512V1.09512C1.69979 0.490439 2.68029 0.490824 3.28449 1.09598L10.5858 8.40876C11.3667 9.19085 12.6338 9.19135 13.4153 8.40987L20.7224 1.10283C21.3229 0.502271 22.2966 0.502272 22.8972 1.10283V1.10283C23.4977 1.70338 23.4977 2.67708 22.8972 3.27763L15.589 10.5858C14.808 11.3668 14.808 12.6332 15.589 13.4142L22.8976 20.7228C23.4985 21.3237 23.5003 22.2975 22.9014 22.9006V22.9006Z" fill="#525252"/>
</svg>
