<svg width="31" height="31" viewBox="0 0 31 31" fill="none" xmlns="http://www.w3.org/2000/svg">
<path d="M15.5 0C12.4344 0 9.43763 0.909059 6.88867 2.61222C4.33971 4.31538 2.35303 6.73615 1.17987 9.5684C0.0067159 12.4007 -0.300236 15.5172 0.297835 18.5239C0.895906 21.5306 2.37214 24.2924 4.53985 26.4601C6.70756 28.6279 9.4694 30.1041 12.4761 30.7022C15.4828 31.3002 18.5993 30.9933 21.4316 29.8201C24.2639 28.647 26.6846 26.6603 28.3878 24.1113C30.0909 21.5624 31 18.5656 31 15.5C31 13.4645 30.5991 11.449 29.8201 9.5684C29.0412 7.68786 27.8995 5.97915 26.4602 4.53984C25.0208 3.10054 23.3121 1.95881 21.4316 1.17987C19.5511 0.400919 17.5355 0 15.5 0ZM15.5 24.8C15.1934 24.8 14.8938 24.7091 14.6389 24.5388C14.384 24.3685 14.1853 24.1264 14.068 23.8432C13.9507 23.5599 13.92 23.2483 13.9798 22.9476C14.0396 22.6469 14.1872 22.3708 14.404 22.154C14.6208 21.9372 14.8969 21.7896 15.1976 21.7298C15.4983 21.67 15.8099 21.7007 16.0932 21.818C16.3764 21.9353 16.6185 22.134 16.7888 22.3889C16.9591 22.6438 17.05 22.9434 17.05 23.25C17.05 23.6611 16.8867 24.0553 16.596 24.346C16.3053 24.6367 15.9111 24.8 15.5 24.8ZM17.05 16.802V18.6C17.05 19.0111 16.8867 19.4053 16.596 19.696C16.3053 19.9867 15.9111 20.15 15.5 20.15C15.0889 20.15 14.6947 19.9867 14.404 19.696C14.1133 19.4053 13.95 19.0111 13.95 18.6V15.5C13.95 15.0889 14.1133 14.6947 14.404 14.404C14.6947 14.1133 15.0889 13.95 15.5 13.95C15.9598 13.95 16.4094 13.8136 16.7917 13.5582C17.174 13.3027 17.472 12.9396 17.648 12.5147C17.824 12.0899 17.87 11.6224 17.7803 11.1714C17.6906 10.7204 17.4692 10.3061 17.144 9.98097C16.8189 9.65582 16.4046 9.43438 15.9536 9.34467C15.5026 9.25496 15.0351 9.301 14.6103 9.47698C14.1854 9.65295 13.8223 9.95095 13.5668 10.3333C13.3114 10.7156 13.175 11.1652 13.175 11.625C13.175 12.0361 13.0117 12.4303 12.721 12.721C12.4303 13.0117 12.0361 13.175 11.625 13.175C11.2139 13.175 10.8197 13.0117 10.529 12.721C10.2383 12.4303 10.075 12.0361 10.075 11.625C10.0709 10.618 10.3473 9.62968 10.873 8.77079C11.3988 7.9119 12.1533 7.2163 13.052 6.76188C13.9506 6.30746 14.9581 6.11215 15.9615 6.19782C16.9649 6.28349 17.9246 6.64675 18.7332 7.24694C19.5419 7.84714 20.1675 8.66056 20.5401 9.59615C20.9126 10.5317 21.0174 11.5526 20.8427 12.5443C20.668 13.5361 20.2207 14.4597 19.5508 15.2116C18.881 15.9636 18.0151 16.5143 17.05 16.802Z" fill="white"/>
</svg>
