<svg width="125" height="123" viewBox="0 0 125 123" fill="none" xmlns="http://www.w3.org/2000/svg">
<g filter="url(#filter0_d_503_78)">
<path d="M74.9049 2.61754L56.9361 1.60044C50.0854 1.21267 43.3179 3.25782 37.8286 7.37482L37.6562 7.5041C32.7015 11.2202 29.0614 16.4199 27.2652 22.3472L26.1931 25.8852C24.8881 30.1916 22.6024 34.1368 19.5155 37.4107L9.88632 47.6235C6.74796 50.9521 5 55.354 5 59.9288C5 67.5228 9.7821 74.2939 16.9389 76.8334L17.8076 77.1416C21.2291 78.3557 24.9244 78.5771 28.4664 77.7801L38.423 75.5399C43.5949 74.3762 48.9864 74.6472 54.0155 76.3236L54.2397 76.3983C59.3431 78.0994 64.8181 78.3529 70.0568 77.1305L73.7348 76.2723C77.5441 75.3835 81.1352 73.7359 84.2935 71.4279L87.1408 69.3471C92.0202 65.7814 95.6686 60.7853 97.5797 55.0521L98.0948 53.5066C99.6481 48.8467 102.355 44.6558 105.965 41.3241L109.646 37.9263C113.539 34.3323 116.378 29.7435 117.855 24.6549L119.816 17.8993C120.482 15.6074 120.471 13.172 119.785 10.886C118.314 5.98114 113.976 2.48724 108.87 2.09449L97.2085 1.19744C95.5007 1.06608 93.7846 1.08572 92.0803 1.25616L79.4457 2.51961C77.9369 2.67049 76.4187 2.70323 74.9049 2.61754Z" fill="black"/>
<path d="M74.9049 2.61754L56.9361 1.60044C50.0854 1.21267 43.3179 3.25782 37.8286 7.37482L37.6562 7.5041C32.7015 11.2202 29.0614 16.4199 27.2652 22.3472L26.1931 25.8852C24.8881 30.1916 22.6024 34.1368 19.5155 37.4107L9.88632 47.6235C6.74796 50.9521 5 55.354 5 59.9288C5 67.5228 9.7821 74.2939 16.9389 76.8334L17.8076 77.1416C21.2291 78.3557 24.9244 78.5771 28.4664 77.7801L38.423 75.5399C43.5949 74.3762 48.9864 74.6472 54.0155 76.3236L54.2397 76.3983C59.3431 78.0994 64.8181 78.3529 70.0568 77.1305L73.7348 76.2723C77.5441 75.3835 81.1352 73.7359 84.2935 71.4279L87.1408 69.3471C92.0202 65.7814 95.6686 60.7853 97.5797 55.0521L98.0948 53.5066C99.6481 48.8467 102.355 44.6558 105.965 41.3241L109.646 37.9263C113.539 34.3323 116.378 29.7435 117.855 24.6549L119.816 17.8993C120.482 15.6074 120.471 13.172 119.785 10.886C118.314 5.98114 113.976 2.48724 108.87 2.09449L97.2085 1.19744C95.5007 1.06608 93.7846 1.08572 92.0803 1.25616L79.4457 2.51961C77.9369 2.67049 76.4187 2.70323 74.9049 2.61754Z" stroke="#9A9A9A"/>
</g>
<g filter="url(#filter1_i_503_78)">
<path d="M90.336 42.8116C89.5332 49.6355 86.537 55.3699 81.3474 60.0147C76.1577 64.6596 70.065 66.982 63.069 66.982C58.5389 66.982 54.2668 65.9211 50.2527 63.7994C42.9127 66.0932 36.4759 67.154 30.9422 66.982C25.4085 66.81 21.7815 65.319 20.0612 62.5092C18.2262 59.642 18.771 55.8143 21.6955 51.0261C24.62 46.2379 29.3222 41.292 35.8021 36.1884C36.6049 29.3071 39.6011 23.5584 44.7907 18.9423C49.9803 14.3261 56.0731 12.018 63.069 12.018C67.5992 12.018 71.8713 13.0789 75.8854 15.2006C83.2254 12.9068 89.6622 11.846 95.1959 12.018C100.73 12.19 104.357 13.6523 106.077 16.4048C107.912 19.3293 107.367 23.1714 104.443 27.9309C101.518 32.6904 96.8158 37.6507 90.336 42.8116ZM30.7271 58.5525C31.5873 60.1007 33.3363 61.0469 35.9741 61.391C38.6119 61.735 41.7658 61.4483 45.4358 60.5308C40.4469 56.4021 37.3504 51.1551 36.1461 44.79C30.7558 50.8684 28.9495 55.4559 30.7271 58.5525ZM95.4109 20.3615C94.5508 18.8132 92.8018 17.8814 90.164 17.566C87.5261 17.2506 84.3722 17.523 80.7022 18.3832C85.6911 22.5693 88.7877 27.8162 89.9919 34.124C95.3822 28.1029 97.1886 23.5154 95.4109 20.3615Z" fill="#00FFB2"/>
</g>
<g filter="url(#filter2_d_503_78)">
<rect x="16" y="97" width="93" height="18" rx="5" fill="black"/>
<g filter="url(#filter3_i_503_78)">
<path d="M31.9824 111H29.9316L25.9395 104.451V111H23.8887V101.047H25.9395L29.9385 107.609V101.047H31.9824V111ZM42.9992 106.249C42.9992 107.229 42.826 108.088 42.4797 108.826C42.1333 109.564 41.6366 110.134 40.9895 110.535C40.3469 110.936 39.6086 111.137 38.7746 111.137C37.9497 111.137 37.2137 110.938 36.5666 110.542C35.9195 110.146 35.4182 109.58 35.0627 108.847C34.7072 108.108 34.5272 107.261 34.5227 106.304V105.812C34.5227 104.832 34.6981 103.97 35.049 103.228C35.4045 102.48 35.9035 101.908 36.5461 101.512C37.1932 101.111 37.9315 100.91 38.7609 100.91C39.5904 100.91 40.3264 101.111 40.9689 101.512C41.6161 101.908 42.1151 102.48 42.466 103.228C42.8215 103.97 42.9992 104.829 42.9992 105.805V106.249ZM40.9211 105.798C40.9211 104.754 40.7342 103.961 40.3605 103.419C39.9868 102.877 39.4536 102.605 38.7609 102.605C38.0728 102.605 37.5419 102.874 37.1682 103.412C36.7945 103.945 36.6053 104.729 36.6008 105.764V106.249C36.6008 107.265 36.7876 108.054 37.1613 108.614C37.535 109.175 38.0728 109.455 38.7746 109.455C39.4628 109.455 39.9914 109.186 40.3605 108.648C40.7297 108.106 40.9165 107.318 40.9211 106.283V105.798ZM53.7535 108.532L56.0094 101.047H58.2926L54.8268 111H52.6871L49.235 101.047H51.5113L53.7535 108.532ZM62.4666 111H60.4158V101.047H62.4666V111ZM70.585 108.389C70.585 108.001 70.4482 107.705 70.1748 107.5C69.9014 107.29 69.4092 107.072 68.6982 106.844C67.9873 106.611 67.4245 106.383 67.0098 106.16C65.8796 105.549 65.3145 104.727 65.3145 103.692C65.3145 103.155 65.4648 102.676 65.7656 102.257C66.071 101.833 66.5062 101.503 67.0713 101.266C67.641 101.029 68.279 100.91 68.9854 100.91C69.6963 100.91 70.3298 101.04 70.8857 101.3C71.4417 101.555 71.8724 101.917 72.1777 102.387C72.4876 102.856 72.6426 103.389 72.6426 103.986H70.5918C70.5918 103.531 70.4482 103.177 70.1611 102.927C69.874 102.672 69.4707 102.544 68.9512 102.544C68.4499 102.544 68.0602 102.651 67.7822 102.865C67.5042 103.075 67.3652 103.353 67.3652 103.699C67.3652 104.023 67.527 104.294 67.8506 104.513C68.1787 104.731 68.6595 104.937 69.293 105.128C70.4596 105.479 71.3096 105.914 71.8428 106.434C72.376 106.953 72.6426 107.6 72.6426 108.375C72.6426 109.236 72.3167 109.913 71.665 110.405C71.0133 110.893 70.1361 111.137 69.0332 111.137C68.2676 111.137 67.5703 110.998 66.9414 110.72C66.3125 110.437 65.8317 110.052 65.499 109.564C65.1709 109.077 65.0068 108.512 65.0068 107.869H67.0645C67.0645 108.967 67.7207 109.517 69.0332 109.517C69.5208 109.517 69.9014 109.419 70.1748 109.223C70.4482 109.022 70.585 108.744 70.585 108.389ZM82.6203 101.047V107.603C82.6203 108.692 82.2785 109.553 81.5949 110.187C80.9159 110.82 79.9862 111.137 78.8059 111.137C77.6437 111.137 76.7209 110.829 76.0373 110.214C75.3537 109.599 75.0051 108.753 74.9914 107.678V101.047H77.0422V107.616C77.0422 108.268 77.1971 108.744 77.507 109.045C77.8215 109.341 78.2544 109.489 78.8059 109.489C79.9589 109.489 80.5445 108.883 80.5627 107.671V101.047H82.6203ZM90.8207 108.949H87.225L86.5414 111H84.3607L88.0658 101.047H89.9662L93.6918 111H91.5111L90.8207 108.949ZM87.7787 107.288H90.267L89.016 103.562L87.7787 107.288ZM97.7223 109.353H102.077V111H95.6715V101.047H97.7223V109.353Z" fill="#00F0FF"/>
</g>
</g>
<defs>
<filter id="filter0_d_503_78" x="0.5" y="0.611816" width="124.308" height="86.1377" filterUnits="userSpaceOnUse" color-interpolation-filters="sRGB">
<feFlood flood-opacity="0" result="BackgroundImageFix"/>
<feColorMatrix in="SourceAlpha" type="matrix" values="0 0 0 0 0 0 0 0 0 0 0 0 0 0 0 0 0 0 127 0" result="hardAlpha"/>
<feOffset dy="4"/>
<feGaussianBlur stdDeviation="2"/>
<feComposite in2="hardAlpha" operator="out"/>
<feColorMatrix type="matrix" values="0 0 0 0 0 0 0 0 0 0 0 0 0 0 0 0 0 0 0.25 0"/>
<feBlend mode="normal" in2="BackgroundImageFix" result="effect1_dropShadow_503_78"/>
<feBlend mode="normal" in="SourceGraphic" in2="effect1_dropShadow_503_78" result="shape"/>
</filter>
<filter id="filter1_i_503_78" x="19" y="12" width="88.1381" height="59" filterUnits="userSpaceOnUse" color-interpolation-filters="sRGB">
<feFlood flood-opacity="0" result="BackgroundImageFix"/>
<feBlend mode="normal" in="SourceGraphic" in2="BackgroundImageFix" result="shape"/>
<feColorMatrix in="SourceAlpha" type="matrix" values="0 0 0 0 0 0 0 0 0 0 0 0 0 0 0 0 0 0 127 0" result="hardAlpha"/>
<feOffset dy="4"/>
<feGaussianBlur stdDeviation="2"/>
<feComposite in2="hardAlpha" operator="arithmetic" k2="-1" k3="1"/>
<feColorMatrix type="matrix" values="0 0 0 0 0 0 0 0 0 0 0 0 0 0 0 0 0 0 0.25 0"/>
<feBlend mode="normal" in2="shape" result="effect1_innerShadow_503_78"/>
</filter>
<filter id="filter2_d_503_78" x="12" y="97" width="101" height="26" filterUnits="userSpaceOnUse" color-interpolation-filters="sRGB">
<feFlood flood-opacity="0" result="BackgroundImageFix"/>
<feColorMatrix in="SourceAlpha" type="matrix" values="0 0 0 0 0 0 0 0 0 0 0 0 0 0 0 0 0 0 127 0" result="hardAlpha"/>
<feOffset dy="4"/>
<feGaussianBlur stdDeviation="2"/>
<feComposite in2="hardAlpha" operator="out"/>
<feColorMatrix type="matrix" values="0 0 0 0 0 0 0 0 0 0 0 0 0 0 0 0 0 0 0.25 0"/>
<feBlend mode="normal" in2="BackgroundImageFix" result="effect1_dropShadow_503_78"/>
<feBlend mode="normal" in="SourceGraphic" in2="effect1_dropShadow_503_78" result="shape"/>
</filter>
<filter id="filter3_i_503_78" x="23.8887" y="100.91" width="78.1881" height="14.2266" filterUnits="userSpaceOnUse" color-interpolation-filters="sRGB">
<feFlood flood-opacity="0" result="BackgroundImageFix"/>
<feBlend mode="normal" in="SourceGraphic" in2="BackgroundImageFix" result="shape"/>
<feColorMatrix in="SourceAlpha" type="matrix" values="0 0 0 0 0 0 0 0 0 0 0 0 0 0 0 0 0 0 127 0" result="hardAlpha"/>
<feOffset dy="4"/>
<feGaussianBlur stdDeviation="2"/>
<feComposite in2="hardAlpha" operator="arithmetic" k2="-1" k3="1"/>
<feColorMatrix type="matrix" values="0 0 0 0 0 0 0 0 0 0 0 0 0 0 0 0 0 0 0.25 0"/>
<feBlend mode="normal" in2="shape" result="effect1_innerShadow_503_78"/>
</filter>
</defs>
</svg>
