<svg width="42" height="36" viewBox="0 0 42 36" fill="none" xmlns="http://www.w3.org/2000/svg">
<path fill-rule="evenodd" clip-rule="evenodd" d="M4 2H38C38.5304 2 39.0391 2.21071 39.4142 2.58579C39.7893 2.96086 40 3.46957 40 4V32C40 32.5304 39.7893 33.0391 39.4142 33.4142C39.0391 33.7893 38.5304 34 38 34H4C3.46957 34 2.96086 33.7893 2.58579 33.4142C2.21071 33.0391 2 32.5304 2 32V4C2 3.46957 2.21071 2.96086 2.58579 2.58579C2.96086 2.21071 3.46957 2 4 2V2Z" fill="#00FFB2" stroke="#5A5A5A" stroke-width="4" stroke-linecap="round" stroke-linejoin="round"/>
<path d="M11.5 12C12.3284 12 13 11.3284 13 10.5C13 9.67157 12.3284 9 11.5 9C10.6716 9 10 9.67157 10 10.5C10 11.3284 10.6716 12 11.5 12Z" fill="#00FFB2" stroke="#5A5A5A" stroke-width="3" stroke-linecap="round" stroke-linejoin="round"/>
<path d="M12 18L17 22L23 15L40 28V32C40 32.5304 39.7893 33.0391 39.4142 33.4142C39.0391 33.7893 38.5304 34 38 34H4C3.46957 34 2.96086 33.7893 2.58579 33.4142C2.21071 33.0391 2 32.5304 2 32V28L12 18Z" fill="#00FFB2" stroke="#5A5A5A" stroke-width="4" stroke-linejoin="round"/>
</svg>
