<svg width="33" height="33" viewBox="0 0 33 33" fill="none" xmlns="http://www.w3.org/2000/svg">
<g filter="url(#filter0_d_639_115)">
<circle cx="16.5" cy="15.5" r="9.5" fill="url(#paint0_linear_639_115)" shape-rendering="crispEdges"/>
</g>
<path d="M33 29.5556V18H28.6667V19.0833H30.1111V20.1667H28.6667V21.25H31.5556V22.3333H28.6667V23.4167H30.1111V24.5H28.6667V25.5833H31.5556V26.6667H28.6667V29.5556H27.5833V26.6667H26.5V28.1111H25.4167V26.6667H24.3333V29.5556H23.25V26.6667H22.1667V28.1111H21.0833V26.6667H20V31H31.5556C31.9386 31 32.306 30.8478 32.5769 30.5769C32.8478 30.306 33 29.9386 33 29.5556V29.5556ZM30.8333 28.1111C31.0249 28.1111 31.2086 28.1872 31.344 28.3226C31.4795 28.4581 31.5556 28.6418 31.5556 28.8333C31.5556 29.0249 31.4795 29.2086 31.344 29.344C31.2086 29.4795 31.0249 29.5556 30.8333 29.5556C30.6418 29.5556 30.4581 29.4795 30.3226 29.344C30.1872 29.2086 30.1111 29.0249 30.1111 28.8333C30.1111 28.6418 30.1872 28.4581 30.3226 28.3226C30.4581 28.1872 30.6418 28.1111 30.8333 28.1111Z" fill="#393939"/>
<path d="M0 1.44444L0 13H4.33333V11.9167H2.88889V10.8333H4.33333V9.75H1.44444V8.66667H4.33333V7.58333H2.88889V6.5H4.33333V5.41667H1.44444V4.33333H4.33333V1.44444H5.41667V4.33333H6.5V2.88889H7.58333V4.33333H8.66667V1.44444H9.75V4.33333H10.8333V2.88889H11.9167V4.33333H13V0L1.44444 0C1.06135 0 0.693954 0.152182 0.423068 0.423068C0.152182 0.693954 0 1.06135 0 1.44444V1.44444ZM2.16667 2.88889C1.97512 2.88889 1.79142 2.8128 1.65598 2.67735C1.52054 2.54191 1.44444 2.35821 1.44444 2.16667C1.44444 1.97512 1.52054 1.79142 1.65598 1.65598C1.79142 1.52054 1.97512 1.44444 2.16667 1.44444C2.35821 1.44444 2.54191 1.52054 2.67735 1.65598C2.8128 1.79142 2.88889 1.97512 2.88889 2.16667C2.88889 2.35821 2.8128 2.54191 2.67735 2.67735C2.54191 2.8128 2.35821 2.88889 2.16667 2.88889Z" fill="#393939"/>
<defs>
<filter id="filter0_d_639_115" x="3" y="6" width="27" height="27" filterUnits="userSpaceOnUse" color-interpolation-filters="sRGB">
<feFlood flood-opacity="0" result="BackgroundImageFix"/>
<feColorMatrix in="SourceAlpha" type="matrix" values="0 0 0 0 0 0 0 0 0 0 0 0 0 0 0 0 0 0 127 0" result="hardAlpha"/>
<feOffset dy="4"/>
<feGaussianBlur stdDeviation="2"/>
<feComposite in2="hardAlpha" operator="out"/>
<feColorMatrix type="matrix" values="0 0 0 0 0 0 0 0 0 0 0 0 0 0 0 0 0 0 0.25 0"/>
<feBlend mode="normal" in2="BackgroundImageFix" result="effect1_dropShadow_639_115"/>
<feBlend mode="normal" in="SourceGraphic" in2="effect1_dropShadow_639_115" result="shape"/>
</filter>
<linearGradient id="paint0_linear_639_115" x1="17" y1="6" x2="17" y2="25" gradientUnits="userSpaceOnUse">
<stop stop-color="white"/>
<stop offset="0.505209" stop-color="#F80000"/>
<stop offset="1" stop-opacity="0.9"/>
</linearGradient>
</defs>
</svg>
