<svg width="55" height="49" viewBox="0 0 55 49" fill="none" xmlns="http://www.w3.org/2000/svg">
<path d="M54.7345 45.176L29.2002 0.982087C28.8197 0.325316 28.1629 0 27.5 0C26.8371 0 26.1742 0.325316 25.7998 0.982087L0.265491 45.176C-0.489488 46.4896 0.455771 48.1223 1.96573 48.1223H53.0343C54.5442 48.1223 55.4895 46.4896 54.7345 45.176ZM25.5358 18.1686C25.5358 17.8985 25.7568 17.6776 26.0269 17.6776H28.9731C29.2432 17.6776 29.4642 17.8985 29.4642 18.1686V29.4626C29.4642 29.7327 29.2432 29.9537 28.9731 29.9537H26.0269C25.7568 29.9537 25.5358 29.7327 25.5358 29.4626V18.1686ZM27.5 39.7745C26.729 39.7588 25.9949 39.4415 25.4552 38.8907C24.9155 38.3398 24.6133 37.5994 24.6133 36.8283C24.6133 36.0571 24.9155 35.3167 25.4552 34.7659C25.9949 34.2151 26.729 33.8978 27.5 33.882C28.271 33.8978 29.0051 34.2151 29.5448 34.7659C30.0845 35.3167 30.3867 36.0571 30.3867 36.8283C30.3867 37.5994 30.0845 38.3398 29.5448 38.8907C29.0051 39.4415 28.271 39.7588 27.5 39.7745Z" fill="#DA5024"/>
</svg>
